<svg xmlns="http://www.w3.org/2000/svg" width="1600" height="900" viewBox="0 0 1600 900">
  <defs>
    <linearGradient id="bg" x1="0" x2="1" y1="0" y2="1">
      <stop offset="0" stop-color="#15906f" stop-opacity="0.18"/>
      <stop offset="0.55" stop-color="#db9730" stop-opacity="0.14"/>
      <stop offset="1" stop-color="#1d1912" stop-opacity="0.06"/>
    </linearGradient>
    <linearGradient id="card" x1="0" x2="1" y1="0" y2="1">
      <stop offset="0" stop-color="#ffffff" stop-opacity="0.88"/>
      <stop offset="1" stop-color="#ffffff" stop-opacity="0.72"/>
    </linearGradient>
  </defs>
  <rect width="1600" height="900" fill="#fbfaf7"/>
  <rect width="1600" height="900" fill="url(#bg)"/>

  <circle cx="260" cy="210" r="210" fill="#15906f" fill-opacity="0.10"/>
  <circle cx="1380" cy="180" r="260" fill="#db9730" fill-opacity="0.10"/>
  <circle cx="1240" cy="760" r="310" fill="#206b8f" fill-opacity="0.08"/>

  <rect x="220" y="180" rx="42" ry="42" width="1160" height="540" fill="url(#card)" stroke="#e4ded1" stroke-width="2"/>
  <rect x="260" y="230" rx="26" ry="26" width="520" height="300" fill="#f2efe8"/>
  <rect x="820" y="230" rx="18" ry="18" width="520" height="28" fill="#e4ded1"/>
  <rect x="820" y="276" rx="18" ry="18" width="430" height="22" fill="#e4ded1"/>
  <rect x="820" y="316" rx="18" ry="18" width="480" height="22" fill="#e4ded1"/>
  <rect x="820" y="380" rx="22" ry="22" width="220" height="44" fill="#15906f" fill-opacity="0.16"/>
  <rect x="1060" y="380" rx="22" ry="22" width="180" height="44" fill="#db9730" fill-opacity="0.16"/>

  <g fill="#5b5144" fill-opacity="0.85">
    <path d="M365 382h310v18H365z"/>
    <path d="M365 420h260v14H365z"/>
  </g>

  <g fill="#15906f">
    <path d="M306 368c0-18 14-32 32-32s32 14 32 32-14 32-32 32-32-14-32-32z" fill-opacity="0.22"/>
    <path d="M320 368c0-10 8-18 18-18s18 8 18 18-8 18-18 18-18-8-18-18z" fill-opacity="0.32"/>
  </g>

  <text x="800" y="700" text-anchor="middle" font-family="DM Sans, Segoe UI, sans-serif" font-size="22" fill="#776b58">
    Image not available
  </text>
  <text x="800" y="738" text-anchor="middle" font-family="Space Grotesk, Trebuchet MS, sans-serif" font-size="34" fill="#1d1912" font-weight="700">
    StayFinder
  </text>
</svg>

